<svg width="114" height="25" viewBox="0 0 114 25" fill="none" xmlns="http://www.w3.org/2000/svg">
<g id="Logo/Harness/With Text" clip-path="url(#clip0_523_182330)">
<path id="Vector" d="M22.97 8.18472L16.7129 1.87866C15.9719 1.17354 15.0892 0.636606 14.1245 0.304088C11.9868 -0.412333 9.85925 0.146884 8.13624 1.87866L1.86378 8.18472C1.16327 8.9306 0.629851 9.81905 0.29951 10.7901C-0.414783 12.942 0.140778 15.0835 1.86378 16.8153L8.12856 23.1213C8.86838 23.8267 9.75025 24.3637 10.7144 24.6959C11.2984 24.8946 11.9104 24.9973 12.527 25C14.0298 25 15.4686 24.3609 16.7026 23.1213L22.9648 16.8153C23.6663 16.0696 24.2006 15.1812 24.5317 14.2099C25.2434 12.058 24.6879 9.91907 22.9648 8.18472H22.97ZM12.8982 3.70837C13.3715 3.86111 13.8076 4.11221 14.1783 4.44542L16.0293 6.3112L12.4194 9.94227L8.80957 6.30862L10.6708 4.43253C11.1701 3.93258 11.8741 3.4017 12.9033 3.70579L12.8982 3.70837ZM3.68664 12.0116C3.83885 11.5349 4.08922 11.0959 4.42141 10.7231L6.27243 8.8599L9.88229 12.4936L6.26987 16.1272L4.40861 14.2511C3.90937 13.7512 3.38454 13.0425 3.68408 12.0065L3.68664 12.0116ZM11.9356 21.2839C11.4617 21.1325 11.0253 20.8813 10.6555 20.5468L8.80957 18.7043L12.4194 15.068L16.0293 18.7017L14.168 20.5778C13.6688 21.0777 12.9673 21.6086 11.9356 21.3045V21.2839ZM21.1522 12.9987C21.0001 13.4748 20.7507 13.9138 20.42 14.2872L18.569 16.1272L14.9591 12.4936L18.569 8.8599L20.4303 10.7334C20.9295 11.2334 21.4543 11.9421 21.1548 12.978" fill="#00ADE4"/>
<path id="Vector_2" d="M36.4802 21.3795H39.7137V12.3469C39.7137 9.5611 38.0316 7.50461 35.1617 7.50461C33.7638 7.50461 32.2661 8.12826 31.4878 9.27505V2.57471H28.2568V21.3717H31.4878V14.2462C31.4878 12.5814 32.3173 10.4991 34.2554 10.4991C35.963 10.4991 36.4802 11.4604 36.4802 13.0247V21.3795ZM49.5371 16.0372C49.5371 18.0241 48.1264 19.1091 46.1269 19.1091C45.1259 19.1091 44.2273 18.4648 44.2273 17.4314C44.2273 16.3465 45.1771 15.7538 46.1525 15.6764L49.5371 15.4187V16.0372ZM52.2304 21.5882C52.7823 21.6063 53.3296 21.4821 53.8203 21.2274V18.8514C53.686 18.8832 53.5486 18.9005 53.4107 18.9029C52.873 18.9029 52.6682 18.671 52.6682 18.0499V13.0685C52.7086 12.1484 52.5775 11.2289 52.2816 10.3574C51.5136 8.34215 49.5627 7.62057 47.2816 7.62057C44.3041 7.62057 41.918 8.96323 41.7388 11.9835H44.8443C44.9211 10.744 45.7916 10.0739 47.2816 10.0739C49.1019 10.0739 49.5371 10.9244 49.5371 12.1897V13.0169L45.6098 13.2927C43.0701 13.4731 41.0962 14.9446 41.0962 17.501C41.0962 19.6966 42.7372 21.7093 45.9196 21.7093C47.8167 21.7093 49.3553 20.7816 49.9723 19.6967C50.0747 20.7043 50.8428 21.5805 52.2279 21.5805L52.2304 21.5882ZM62.3048 10.8135C62.4759 10.8148 62.6469 10.826 62.8168 10.8471V7.80612C62.6785 7.80612 62.5403 7.7752 62.4046 7.7752C60.8378 7.7752 59.2479 8.41947 58.6334 9.96828L58.3493 7.9556H55.6278V21.382H58.8613V14.6173C58.8613 12.4474 60.0416 10.8213 62.2971 10.8213L62.3048 10.8135ZM72.4226 21.3872H75.6305V12.4216C75.6305 9.63326 73.9613 7.62057 71.1144 7.62057C69.5782 7.62057 67.9858 8.26484 67.1896 9.68222L66.9592 7.95302H64.2735V21.3795H67.4789V15.9084C67.4789 14.7719 67.4533 13.3777 67.9167 12.3185C68.3519 11.3367 69.0969 10.6151 70.2209 10.6151C71.9131 10.6151 72.4252 11.5712 72.4252 13.1458L72.4226 21.3872ZM86.158 13.3313H80.3925C80.3783 12.5743 80.6233 11.8355 81.0863 11.2388C81.3529 10.9037 81.6936 10.6361 82.0812 10.4571C82.4688 10.2781 82.8926 10.1928 83.3188 10.2079C83.6912 10.1879 84.0636 10.2463 84.4124 10.3794C84.7611 10.5126 85.0783 10.7175 85.3439 10.9811C85.8559 11.5506 86.1401 12.3237 86.1657 13.3313H86.158ZM89.3711 14.7771C89.4223 13.0994 89.1918 11.5764 88.2164 10.1023C87.1155 8.42462 85.3183 7.62573 83.3521 7.62573C82.5641 7.60259 81.7798 7.74175 81.0472 8.03467C80.3147 8.3276 79.6493 8.7681 79.0919 9.32916C77.8118 10.646 77.1692 12.5556 77.1692 14.6997C77.1692 16.8954 77.8861 18.7792 79.2174 20.0703C79.7741 20.6142 80.4333 21.0405 81.1561 21.3242C81.8789 21.6079 82.6508 21.7432 83.4263 21.7222C85.1186 21.7222 86.7853 21.181 87.9143 19.8384C88.4263 19.2173 88.9665 18.1607 89.0434 17.3593H85.9711C85.8633 17.7897 85.6411 18.1826 85.3285 18.4957C84.8677 18.9596 84.3044 19.14 83.3802 19.14C82.6393 19.1375 81.9291 18.8412 81.4038 18.3153C81.0717 17.9663 80.8139 17.5526 80.6461 17.0998C80.4784 16.6469 80.4043 16.1643 80.4283 15.6816H89.3455C89.3455 15.3955 89.3711 14.7771 89.3711 14.7771ZM93.6773 11.7052C93.6849 11.3919 93.787 11.0884 93.9698 10.8348C94.1527 10.5813 94.4078 10.3896 94.7014 10.2852C95.1433 10.1184 95.6154 10.0482 96.0864 10.0791C96.7236 10.0612 97.3447 10.2816 97.8299 10.6976C98.1652 11.0333 98.3579 11.487 98.3675 11.9629H101.422C101.384 10.9263 100.963 9.94135 100.242 9.20031C99.2687 8.13856 97.6533 7.62315 96.0634 7.62315C94.3941 7.62315 92.9911 8.11279 92.0106 8.9658C91.5728 9.33377 91.2231 9.7965 90.9877 10.3195C90.7524 10.8424 90.6373 11.4121 90.6511 11.9861C90.6511 13.6895 91.8826 15.1868 93.7029 15.5759C94.8831 15.8336 96.217 15.911 97.3972 16.0913C98.2165 16.2202 98.7311 16.7356 98.7311 17.5113C98.7311 18.9828 97.09 19.2147 96.0122 19.2147C95.0879 19.2147 94.4991 19.0343 93.9845 18.622C93.6299 18.3023 93.392 17.8723 93.3086 17.4005H90.2876C90.4116 18.4596 90.903 19.4407 91.6752 20.1708C92.7787 21.23 94.2917 21.7171 95.9866 21.7171C97.8069 21.7171 99.4735 21.2532 100.551 20.1708C100.934 19.7856 101.235 19.3255 101.434 18.8189C101.634 18.3123 101.728 17.7699 101.711 17.2253C101.711 15.1069 100.175 13.7643 98.068 13.4293C96.7598 13.2231 96.4269 13.1973 95.2211 13.0427C94.5042 12.9396 93.685 12.6536 93.685 11.7001L93.6773 11.7052ZM110.674 11.9578H113.718C113.68 10.9212 113.259 9.9362 112.538 9.19516C111.563 8.13857 109.947 7.62315 108.368 7.62315C106.701 7.62315 105.295 8.11279 104.315 8.9658C103.877 9.33377 103.527 9.7965 103.292 10.3195C103.057 10.8424 102.942 11.4121 102.955 11.9861C102.955 13.6895 104.187 15.1868 106.007 15.5759C107.187 15.8336 108.521 15.911 109.701 16.0913C110.521 16.2202 111.035 16.7356 111.035 17.5113C111.035 18.9828 109.392 19.2147 108.316 19.2147C107.392 19.2147 106.803 19.0343 106.289 18.622C105.934 18.3023 105.696 17.8723 105.613 17.4005H102.582C102.705 18.4602 103.198 19.4416 103.972 20.1708C105.073 21.23 106.586 21.7171 108.281 21.7171C110.101 21.7171 111.768 21.2532 112.845 20.1708C113.227 19.7852 113.527 19.3249 113.726 18.8183C113.924 18.3117 114.018 17.7696 114 17.2253C114 15.1069 112.464 13.7643 110.357 13.4293C109.049 13.2231 108.716 13.1973 107.51 13.0427C106.793 12.9396 105.974 12.6536 105.974 11.7001C105.982 11.3868 106.084 11.0833 106.266 10.8297C106.449 10.5761 106.704 10.3845 106.998 10.2801C107.44 10.1133 107.912 10.043 108.383 10.0739C109.02 10.0561 109.641 10.2764 110.126 10.6924C110.462 11.0279 110.656 11.4815 110.667 11.9578" fill="#231F20"/>
</g>
<defs>
<clipPath id="clip0_523_182330">
<rect width="114" height="25" fill="white"/>
</clipPath>
</defs>
</svg>
